FFmpeg version SVN-r25716, Copyright (c) 2000-2010 the FFmpeg developers  built on Nov 10 2010 12:23:18 with gcc 4.1.2 20080704 (Red Hat 4.1.2-48)  configuration: --enable-libmp3lame --enable-shared --disable-mmx --arch=x86_64  libavutil     50.33. 0 / 50.33. 0  libavcore      0.12. 1 /  0.12. 1  libavcodec    52.94. 4 / 52.94. 4  libavformat   52.84. 0 / 52.84. 0  libavdevice   52. 2. 2 / 52. 2. 2  libavfilter    1.59. 0 /  1.59. 0  libswscale     0.12. 0 /  0.12. 0Seems stream 0 codec frame rate differs from container frame rate: 600.00 (600/1) -> 8.00 (8/1)Input #0, mov,mp4,m4a,3gp,3g2,mj2, from '/RAID10/data/converted_video_files/22707.mov':  Metadata:    major_brand     : qt      minor_version   : 537199360    compatible_brands: qt    Duration: 00:00:06.12, start: 0.000000, bitrate: 3638 kb/s    Stream #0.0(eng): Video: svq3, yuvj420p, 365x417, 3636 kb/s, 8 fps, 8 tbr, 600 tbn, 600 tbc[buffer @ 0x1ebca460] w:365 h:417 pixfmt:yuvj420p[ffsink @ 0x1ebca6d0] auto-inserting filter 'auto-inserted scaler 0' between the filter 'src' and the filter 'out'[scale @ 0x1ebc9e80] w:365 h:417 fmt:yuvj420p -> w:365 h:417 fmt:yuv420p flags:0x4Output #0, flv, to '/RAID10/data/converted_video_files/22707.flv':  Metadata:    encoder         : Lavf52.84.0    Stream #0.0(eng): Video: flv, yuv420p, 365x417, q=2-31, 600 kb/s, 1k tbn, 24 tbcStream mapping:  Stream #0.0 -> #0.0Press [q] to stop encodingframe=   49 fps=  0 q=2.5 size=     281kB time=6.04 bitrate= 380.5kbits/s    frame=   49 fps=  0 q=2.5 Lsize=     281kB time=6.04 bitrate= 380.5kbits/s    video:280kB audio:0kB global headers:0kB muxing overhead 0.347122%